<svg xmlns="http://www.w3.org/2000/svg" width="32" height="32" viewBox="0 0 512 512" fill="none">
  <path d="M256 512C397.385 512 512 397.385 512 256C512 114.615 397.385 0 256 0C114.615 0 0 114.615 0 256C0 397.385 114.615 512 256 512Z" fill="#3B99FC"/>
  <path d="M169.6 165.87C213.973 121.497 286.027 121.497 330.4 165.87L337.28 172.75C339.413 174.883 339.413 178.37 337.28 180.503L318.72 199.063C317.653 200.13 315.947 200.13 314.88 199.063L305.493 189.677C274.453 158.637 225.547 158.637 194.507 189.677L184.587 199.597C183.52 200.663 181.813 200.663 180.747 199.597L162.187 181.037C160.053 178.903 160.053 175.417 162.187 173.283L169.6 165.87ZM372.693 208.163L389.227 224.697C391.36 226.83 391.36 230.317 389.227 232.45L310.827 310.85C308.693 312.983 305.207 312.983 303.073 310.85L248.533 256.31C248 255.777 247.147 255.777 246.613 256.31L192.073 310.85C189.94 312.983 186.453 312.983 184.32 310.85L105.92 232.45C103.787 230.317 103.787 226.83 105.92 224.697L122.453 208.163C124.587 206.03 128.073 206.03 130.207 208.163L184.747 262.703C185.28 263.237 186.133 263.237 186.667 262.703L241.207 208.163C243.34 206.03 246.827 206.03 248.96 208.163L303.5 262.703C304.033 263.237 304.887 263.237 305.42 262.703L359.96 208.163C362.093 206.03 365.58 206.03 367.713 208.163H372.693Z" fill="white"/>
</svg> 